HIERARCHY
ROOT Pelvis
{
	OFFSET 0.000000 0.941512 0.000000
	CHANNELS 6 Xposition Yposition Zposition Zrotation Yrotation Xrotation 
	JOINT Pelvis_L_Hip
	{
		OFFSET 0.000000 0.000000 0.000000
		CHANNELS 3 Zrotation Yrotation Xrotation
		JOINT L_Hip
		{
			OFFSET 0.062321 -0.080322 -0.016990
			CHANNELS 3 Zrotation Yrotation Xrotation
			JOINT L_Knee
			{
				OFFSET 0.093051 -0.381305 -0.029784
				CHANNELS 3 Zrotation Yrotation Xrotation
				JOINT L_Ankle
				{
					OFFSET -0.010371 -0.431000 -0.033614
					CHANNELS 3 Zrotation Yrotation Xrotation
					End Site #name: L_Foot
					{
						OFFSET 0.069299 -0.038670 0.119418
					}
				}
			}
		}
	}
	JOINT Pelvis_R_Hip
	{
		OFFSET 0.000000 0.000000 0.000000
		CHANNELS 3 Zrotation Yrotation Xrotation
		JOINT R_Hip
		{
			OFFSET -0.055334 -0.094904 -0.002373
			CHANNELS 3 Zrotation Yrotation Xrotation
			JOINT R_Knee
			{
				OFFSET -0.064207 -0.384370 -0.019592
				CHANNELS 3 Zrotation Yrotation Xrotation
				JOINT R_Ankle
				{
					OFFSET 0.025418 -0.419734 -0.065953
					CHANNELS 3 Zrotation Yrotation Xrotation
					End Site #name: R_Foot
					{
						OFFSET -0.057233 -0.039888 0.132134
					}
				}
			}
		}
	}
	JOINT Pelvis_Spine1
	{
		OFFSET 0.000000 0.000000 0.000000
		CHANNELS 3 Zrotation Yrotation Xrotation
		JOINT Spine1
		{
			OFFSET -0.005562 0.124093 -0.043360
			CHANNELS 3 Zrotation Yrotation Xrotation
			JOINT Spine2
			{
				OFFSET 0.012244 0.139499 0.029894
				CHANNELS 3 Zrotation Yrotation Xrotation
				JOINT Spine3
				{
					OFFSET -0.002556 0.056561 0.009225
					CHANNELS 3 Zrotation Yrotation Xrotation
					JOINT Spine3_Neck
					{
						OFFSET 0.000000 0.000000 0.000000
						CHANNELS 3 Zrotation Yrotation Xrotation
						JOINT Neck
						{
							OFFSET -0.005205 0.217920 -0.024551
							CHANNELS 3 Zrotation Yrotation Xrotation
							End Site #name: Head
							{
								OFFSET 0.002365 0.091850 0.046637
							}
						}
					}
					JOINT Spine3_L_Collar
					{
						OFFSET 0.000000 0.000000 0.000000
						CHANNELS 3 Zrotation Yrotation Xrotation
						JOINT L_Collar
						{
							OFFSET 0.072225 0.116603 -0.009480
							CHANNELS 3 Zrotation Yrotation Xrotation
							JOINT L_Shoulder
							{
								OFFSET 0.115937 -0.058643 -0.021018
								CHANNELS 3 Zrotation Yrotation Xrotation
								JOINT L_Elbow
								{
									OFFSET 0.021994 -0.254722 -0.024492
									CHANNELS 3 Zrotation Yrotation Xrotation
									End Site #name: L_Wrist
									{
										OFFSET 0.048810 -0.240214 0.103329
									}
								}
							}
						}
					}
					JOINT Spine3_R_Collar
					{
						OFFSET 0.000000 0.000000 0.000000
						CHANNELS 3 Zrotation Yrotation Xrotation
						JOINT R_Collar
						{
							OFFSET -0.073372 0.120704 -0.024611
							CHANNELS 3 Zrotation Yrotation Xrotation
							JOINT R_Shoulder
							{
								OFFSET -0.108089 -0.054969 -0.020504
								CHANNELS 3 Zrotation Yrotation Xrotation
								JOINT R_Elbow
								{
									OFFSET -0.033684 -0.260739 0.009889
									CHANNELS 3 Zrotation Yrotation Xrotation
									End Site #name: R_Wrist
									{
										OFFSET -0.067980 -0.232763 0.118463
									}
								}
							}
						}
					}
				}
			}
		}
	}
}
MOTION
Frames: 10
Frame Time: 0.041667
-0.025115 0.974871 -0.045009 -2.469362 -9.173644 2.856608 0.000000 0.000000 0.000000 1.643502 -0.722736 -2.609938 4.505201 -0.376344 -0.203567 -4.993554 -1.314649 8.373641 0.000000 0.000000 0.000000 0.134760 1.009892 -6.077856 -1.473335 0.223942 0.069490 11.419483 8.882871 15.447334 0.000000 0.000000 0.000000 13.419959 -3.647006 3.762772 7.924595 -1.320033 5.033176 1.310111 -8.412150 -0.897934 0.000000 0.000000 0.000000 -14.241747 8.611476 5.263003 0.000000 0.000000 0.000000 31.796182 -38.563214 -34.404957 -39.238190 -8.434266 -28.393087 -10.471872 -24.872639 -48.511731 0.000000 0.000000 0.000000 -22.954680 15.798594 -5.832118 22.671892 3.637616 -7.416764 -25.303383 -11.947770 -18.517526 
-0.025167 0.974780 -0.044055 -2.561546 -9.217374 2.961086 0.000000 0.000000 0.000000 1.697021 -0.700701 -2.502104 4.592827 -0.369325 -0.426305 -4.988241 -1.312832 8.370326 0.000000 0.000000 0.000000 0.216084 1.035661 -6.230758 -1.452377 0.236109 0.266735 11.374897 8.908455 15.349236 0.000000 0.000000 0.000000 13.420008 -3.625205 3.641908 7.842685 -1.303876 5.034590 1.183118 -8.399066 -0.864979 0.000000 0.000000 0.000000 -14.052687 8.527000 5.417894 0.000000 0.000000 0.000000 31.886847 -38.555280 -34.444250 -39.391689 -8.572539 -28.627937 -10.712561 -24.752543 -47.824543 0.000000 0.000000 0.000000 -23.043361 15.885137 -5.892667 23.092805 3.706541 -7.471065 -25.574160 -12.139750 -17.977032 
-0.025374 0.974760 -0.042891 -2.628379 -9.337189 3.072543 0.000000 0.000000 0.000000 1.734098 -0.680449 -2.405257 4.663888 -0.364783 -0.589644 -4.973792 -1.248610 8.399380 0.000000 0.000000 0.000000 0.271624 1.047265 -6.300821 -1.448163 0.235434 0.268321 11.419880 8.991095 15.353985 0.000000 0.000000 0.000000 13.362313 -3.586415 3.512037 7.748068 -1.284886 5.056953 1.109780 -8.405577 -0.810489 0.000000 0.000000 0.000000 -13.968178 8.498883 5.509476 0.000000 0.000000 0.000000 32.048628 -38.511302 -34.496711 -39.426966 -8.713399 -28.913114 -10.968096 -24.656661 -47.151292 0.000000 0.000000 0.000000 -23.180790 15.921190 -5.890926 23.183342 3.687403 -7.398681 -25.432736 -12.050318 -17.698365 
-0.025701 0.974667 -0.041528 -2.667035 -9.506769 3.167508 0.000000 0.000000 0.000000 1.746399 -0.658011 -2.304316 4.706531 -0.361910 -0.695209 -4.909004 -1.113089 8.390940 0.000000 0.000000 0.000000 0.310236 1.050807 -6.324318 -1.456096 0.233667 0.233280 11.483363 9.111669 15.357683 0.000000 0.000000 0.000000 13.357547 -3.563032 3.402086 7.584666 -1.251039 5.006834 0.999447 -8.448325 -0.739323 0.000000 0.000000 0.000000 -13.951851 8.527024 5.650673 0.000000 0.000000 0.000000 32.048396 -38.452158 -34.468136 -39.429541 -8.781310 -29.075531 -11.236977 -24.605450 -46.534846 0.000000 0.000000 0.000000 -23.295023 15.900953 -5.833357 23.190018 3.678010 -7.382495 -25.004697 -11.768364 -17.526038 
-0.026151 0.974567 -0.040160 -2.717338 -9.688104 3.206820 0.000000 0.000000 0.000000 1.766735 -0.630081 -2.178559 4.743432 -0.362990 -0.732429 -4.819268 -0.944941 8.359972 0.000000 0.000000 0.000000 0.368970 1.050656 -6.327406 -1.466124 0.237995 0.272387 11.542978 9.249327 15.342214 0.000000 0.000000 0.000000 13.397154 -3.554249 3.320012 7.467312 -1.226973 5.012259 0.868291 -8.507129 -0.683038 0.000000 0.000000 0.000000 -13.961258 8.573287 5.799311 0.000000 0.000000 0.000000 32.008312 -38.439182 -34.472635 -39.482127 -8.785527 -29.086252 -11.341572 -24.534091 -46.199236 0.000000 0.000000 0.000000 -23.347096 15.938254 -5.832856 23.358434 3.744109 -7.513181 -24.866321 -11.684470 -17.228786 
-0.026569 0.974534 -0.039144 -2.773842 -9.804457 3.233548 0.000000 0.000000 0.000000 1.801548 -0.617131 -2.114934 4.777826 -0.368074 -0.703135 -4.757406 -0.834574 8.333949 0.000000 0.000000 0.000000 0.421467 1.048206 -6.316438 -1.450625 0.236700 0.287776 11.594323 9.340871 15.352468 0.000000 0.000000 0.000000 13.421729 -3.549971 3.275085 7.432474 -1.219390 5.024071 0.798075 -8.556013 -0.650827 0.000000 0.000000 0.000000 -13.996700 8.625275 5.909082 0.000000 0.000000 0.000000 32.057251 -38.436317 -34.519974 -39.568042 -8.774720 -29.037298 -11.368935 -24.511567 -46.098866 0.000000 0.000000 0.000000 -23.346157 15.941831 -5.818016 23.575986 3.815351 -7.635828 -24.897970 -11.712346 -17.067494 
-0.026916 0.974557 -0.038380 -2.810166 -9.872056 3.266306 0.000000 0.000000 0.000000 1.824816 -0.612352 -2.089032 4.805295 -0.372592 -0.671468 -4.716187 -0.776047 8.305739 0.000000 0.000000 0.000000 0.454368 1.044901 -6.299599 -1.429077 0.232488 0.276840 11.628422 9.399578 15.361936 0.000000 0.000000 0.000000 13.410660 -3.540111 3.240033 7.436016 -1.219254 5.016144 0.788100 -8.571550 -0.628783 0.000000 0.000000 0.000000 -14.031359 8.666312 5.981601 0.000000 0.000000 0.000000 32.084537 -38.416829 -34.526400 -39.578015 -8.776069 -29.039841 -11.461522 -24.543144 -45.978695 0.000000 0.000000 0.000000 -23.295184 15.904016 -5.782720 23.651312 3.823776 -7.627807 -24.909322 -11.717208 -17.129183 
-0.027333 0.974537 -0.037713 -2.850151 -9.963044 3.306913 0.000000 0.000000 0.000000 1.857855 -0.605861 -2.053517 4.833660 -0.375915 -0.660492 -4.655538 -0.691792 8.262065 0.000000 0.000000 0.000000 0.493649 1.044420 -6.299456 -1.402809 0.227754 0.268692 11.675175 9.484889 15.372080 0.000000 0.000000 0.000000 13.400511 -3.525526 3.180715 7.427149 -1.216489 5.008296 0.811461 -8.538857 -0.625629 0.000000 0.000000 0.000000 -14.050221 8.704848 6.095412 0.000000 0.000000 0.000000 32.106835 -38.371480 -34.496144 -39.533390 -8.778689 -29.061827 -11.598923 -24.598713 -45.813356 0.000000 0.000000 0.000000 -23.335742 15.916109 -5.781450 23.690872 3.780710 -7.496444 -24.895828 -11.707675 -17.209533 
-0.027829 0.974505 -0.037254 -2.874535 -10.041153 3.327055 0.000000 0.000000 0.000000 1.898185 -0.600122 -2.019797 4.833088 -0.377015 -0.648394 -4.604000 -0.615918 8.227533 0.000000 0.000000 0.000000 0.532802 1.044553 -6.302719 -1.389225 0.226687 0.282625 11.702966 9.554919 15.362189 0.000000 0.000000 0.000000 13.379857 -3.508167 3.121308 7.398905 -1.210346 5.008678 0.819118 -8.515573 -0.614988 0.000000 0.000000 0.000000 -14.018757 8.717551 6.237249 0.000000 0.000000 0.000000 32.126140 -38.323074 -34.460751 -39.491344 -8.780635 -29.081429 -11.720841 -24.653170 -45.676111 0.000000 0.000000 0.000000 -23.436952 15.916067 -5.761053 23.750854 3.749327 -7.398107 -24.817947 -11.655672 -17.295266 
-0.028311 0.974450 -0.037059 -2.883605 -10.093234 3.333402 0.000000 0.000000 0.000000 1.929802 -0.599813 -2.011778 4.824721 -0.378754 -0.615925 -4.568190 -0.564175 8.202493 0.000000 0.000000 0.000000 0.563337 1.047398 -6.320701 -1.382117 0.228758 0.323680 11.708446 9.598226 15.336232 0.000000 0.000000 0.000000 13.351341 -3.492472 3.079153 7.364303 -1.203302 5.012183 0.806034 -8.508189 -0.590132 0.000000 0.000000 0.000000 -13.988484 8.720770 6.331507 0.000000 0.000000 0.000000 32.129325 -38.286995 -34.430456 -39.472992 -8.777828 -29.085830 -11.798508 -24.682891 -45.579393 0.000000 0.000000 0.000000 -23.506053 15.920923 -5.750590 23.804396 3.736961 -7.353283 -24.723685 -11.590937 -17.345501 
